<svg xmlns="http://www.w3.org/2000/svg" id="emoji" viewBox="0 0 72 72"><g id="color"><polygon fill="#9B9B9A" stroke="none" points="63.738 40.98 63.738 68.046 11.812 68.046 11.812 40.98 11.812 35.958 63.738 35.958"/><rect width="50" height="32.067" x="12.625" y="3.892" fill="#9B9B9A" stroke="none" stroke-linecap="round" stroke-linejoin="round" stroke-miterlimit="10" stroke-width="2" transform="matrix(-1 -1.224647e-16 1.224647e-16 -1 75.25 39.85)"/><polygon fill="#FFF" stroke="none" points="62.625 36 12.625 13.779 12.625 3.892 62.625 26.113"/></g><g id="line"><polyline fill="none" stroke="#000" stroke-linecap="round" stroke-linejoin="round" stroke-miterlimit="10" stroke-width="2" points="62.625 40.98 62.625 68.046 12.625 68.046 12.625 40.98"/><rect width="50" height="32.067" x="12.625" y="3.892" fill="none" stroke="#000" stroke-linecap="round" stroke-linejoin="round" stroke-miterlimit="10" stroke-width="2" transform="matrix(-1 -1.224647e-16 1.224647e-16 -1 75.25 39.85)"/><line x1="17.625" x2="57.625" y1="41.528" y2="41.528" fill="none" stroke="#000" stroke-linecap="round" stroke-linejoin="round" stroke-miterlimit="10" stroke-width="2"/><line x1="17.625" x2="57.625" y1="47.097" y2="47.097" fill="none" stroke="#000" stroke-linecap="round" stroke-linejoin="round" stroke-miterlimit="10" stroke-width="2"/><line x1="17.625" x2="57.625" y1="52.666" y2="52.666" fill="none" stroke="#000" stroke-linecap="round" stroke-linejoin="round" stroke-miterlimit="10" stroke-width="2"/><rect width="13.506" height="8.104" x="30.717" y="56.186" fill="none" stroke="#000" stroke-linecap="round" stroke-linejoin="round" stroke-miterlimit="10" stroke-width="2"/><rect width="50" height="32.067" x="12.625" y="3.892" fill="none" stroke="#000" stroke-linecap="round" stroke-linejoin="round" stroke-miterlimit="10" stroke-width="2" transform="matrix(-1 -1.224647e-16 1.224647e-16 -1 75.25 39.85)"/></g></svg>