<svg xmlns="http://www.w3.org/2000/svg" id="emoji" x="0" y="0" enable-background="new 0 0 72 72" version="1.1" viewBox="0 0 72 72" xml:space="preserve"><g id="color"><ellipse cx="14.229" cy="31.724" fill="#92D3F5" rx="4" ry="4"/></g><g id="skin"><path fill="#FCEA2B" d="M61.4709,44.0119l-0.7338-0.9323l0.5161-0.6151L47.2314,30.6989L35.6595,44.4897L22.8704,33.7576 l-0.1182,0.1408c-0.1689-0.2877-0.378-0.5572-0.6481-0.7839c-1.2691-1.065-3.1613-0.8995-4.2264,0.3696 c-1.065,1.2692-0.8995,3.1614,0.3696,4.2264c0.2701,0.2267,0.5718,0.3859,0.8844,0.5023l-0.1182,0.1408l15.5823,13.0762 l-0.8936-0.4675l-3.5975,0.181l-3.9475,3.527l0.2182,2.9125l3.8056,0.5209l7.279,0.9478l3.7792,3.1711l-0.1135,0.1461l0.912,0.524 l1.2171,1.0212l0.1823-0.2173l0.3185,0.183l0.908-0.0889l4.4343,1.0218l6.5264-1.9713l4.7385-4.2371l2.5898-6.7361L61.4709,44.0119 z"/></g><g id="line"><path fill="none" stroke="#000" stroke-linecap="round" stroke-linejoin="round" stroke-miterlimit="10" stroke-width="2" d="M57.855,39.5861c5.9803,5.018,6.7603,13.9339,1.7423,19.9141s-13.9339,6.7603-19.9141,1.7423"/><line x1="57.28" x2="49.384" y1="39.104" y2="32.478" fill="none" stroke="#000" stroke-linecap="round" stroke-linejoin="round" stroke-miterlimit="10" stroke-width="2"/><path fill="none" stroke="#000" stroke-linecap="round" stroke-linejoin="round" stroke-miterlimit="10" stroke-width="2" d="M45.3302,36.9171c-1.2261-1.1197-1.3124-3.0213-0.1927-4.2474c1.1197-1.2261,3.0213-1.3124,4.2474-0.1927"/><path fill="none" stroke="#000" stroke-linecap="round" stroke-linejoin="round" stroke-miterlimit="10" stroke-width="2" d="M41.3136,41.3926c-1.2261-1.1197-1.3124-3.0213-0.1927-4.2474c1.1197-1.2261,3.0213-1.3124,4.2474-0.1927"/><path fill="none" stroke="#000" stroke-linecap="round" stroke-linejoin="round" stroke-miterlimit="10" stroke-width="2" d="M41.2277,41.316c-1.1823-1.1659-1.1956-3.0694-0.0297-4.2516c1.1658-1.1823,3.0694-1.1956,4.2516-0.0297"/><path fill="none" stroke="#000" stroke-linecap="round" stroke-linejoin="round" stroke-miterlimit="10" stroke-width="2" d="M37.1131,45.7593c-1.201-1.1465-1.2452-3.0496-0.0987-4.2506s3.0496-1.2453,4.2506-0.0988"/><path fill="none" stroke="#000" stroke-linecap="round" stroke-linejoin="round" stroke-miterlimit="10" stroke-width="2" d="M29.2154,58.143c-1.6564,0.116-3.0931-1.1328-3.2091-2.7891c-0.116-1.6563,1.1328-3.0931,2.7891-3.2091"/><path fill="none" stroke="#000" stroke-linecap="round" stroke-linejoin="round" stroke-miterlimit="10" stroke-width="2" d="M18.5267,38.0128c-1.2719-1.0673-1.4379-2.9636-0.3706-4.2356s2.9636-1.4379,4.2356-0.3706"/><line x1="37.089" x2="22.392" y1="45.739" y2="33.407" fill="none" stroke="#000" stroke-linecap="round" stroke-linejoin="round" stroke-miterlimit="10" stroke-width="2"/><line x1="18.527" x2="36.813" y1="38.013" y2="53.357" fill="none" stroke="#000" stroke-linecap="round" stroke-linejoin="round" stroke-miterlimit="10" stroke-width="2"/><line x1="31.333" x2="28.795" y1="52.079" y2="52.145" fill="none" stroke="#000" stroke-linecap="round" stroke-linejoin="round" stroke-miterlimit="10" stroke-width="2"/><path fill="none" stroke="#000" stroke-linecap="round" stroke-linejoin="round" stroke-miterlimit="10" stroke-width="2" d="M31.7178,58.2606c2.4888-0.1011,5.263,0.6335,8.0883,3.0851"/><line x1="29.215" x2="31.787" y1="58.143" y2="58.259" fill="none" stroke="#000" stroke-linecap="round" stroke-linejoin="round" stroke-miterlimit="10" stroke-width="2"/><path fill="none" stroke="#000" stroke-linecap="round" stroke-linejoin="round" stroke-miterlimit="10" stroke-width="2" d="M17.0896,30.8171c-0.165-0.5297-0.4788-1.0198-0.9353-1.4029c-1.2692-1.065-3.1615-0.8995-4.2265,0.3698 c-1.065,1.2692-0.8995,3.1615,0.3698,4.2265c0.6346,0.5325,1.425,0.7574,2.1898,0.6905"/><line x1="13.466" x2="13.466" y1="24.552" y2="7.466" fill="none" stroke="#000" stroke-linecap="round" stroke-linejoin="round" stroke-miterlimit="10" stroke-width="2"/><line x1="8.293" x2="13.494" y1="11.337" y2="6.136" fill="none" stroke="#000" stroke-linecap="round" stroke-linejoin="round" stroke-miterlimit="10" stroke-width="2"/><line x1="18.696" x2="13.494" y1="11.337" y2="6.136" fill="none" stroke="#000" stroke-linecap="round" stroke-linejoin="round" stroke-miterlimit="10" stroke-width="2"/></g></svg>