<svg xmlns="http://www.w3.org/2000/svg" id="emoji" x="0" y="0" enable-background="new 0 0 72 72" version="1.1" viewBox="0 0 72 72" xml:space="preserve"><g id="color"><polyline fill="#3F3F3F" points="26.296 36.76 45.9 6.237 50.201 9.084 34.088 35.112"/><polyline fill="#3F3F3F" points="18.943 53.711 15.552 58.535 9.74 62.873 11.748 55.808 15.552 50.271"/></g><g id="skin"><path fill="#FCEA2B" d="M12.5112,54.6969c-1.1821-1.3451-2.3342-3.0456-2.2442-4.012l2.6885-18.4595 c0-0.8427,0.1873-1.5918,1.0708-2.0703l16.3478-8.2712c0.5202-0.2526-1.2442-2.812,4.2487-0.4575"/><path fill="#FCEA2B" d="M20.5423,40.4964l0.659-3.9539c0.0669-0.5425,0.6064-1.3509,0.9989-1.5091l2.1077-0.8445"/><path fill="#FCEA2B" d="M21.943,53.1389c2.3774,7.0276,10.894,6.7402,5.0421-2.1684"/><path fill="#FCEA2B" d="M23.4274,51.9706c4.8738,8.5664,15.5709,8.7109,6.3068-4.2992"/><path fill="#FCEA2B" d="M28.1211,49.2805c13.3104,17.7473,14.1027,4.4061,5.0706-1.307"/><path fill="#FCEA2B" d="M56.7973,52.2387c-13.0477,2.7879-14.9603-3.4116-21.2146-4.3521 c-5.087-1.0545-10.7889,2.251-12.7396,3.8613c-4.4436,4.2833-10.2629-1.5712-4.7642-5.6889l7.2546-6.7291l8.2677-3.938 l7.8137-10.3699L60.054,35.0334c5.6531,5.6531,5.6531,14.8187,0,20.4719C55.5271,56,47.5057,59.6859,36.5,58.1731"/><polygon fill="#FCEA2B" points="38.132 42.874 16.516 42.874 25.136 35.48 26.063 36.581 34.088 35.112 40.721 23.534 44.288 25.433"/><rect width="21.481" height="11.268" x="32.059" y="45.907" fill="#FCEA2B"/></g><g id="line"><path fill="none" stroke="#000" stroke-linecap="round" stroke-linejoin="round" stroke-miterlimit="10" stroke-width="2" d="M10.6323,52.6212l2.3232-20.3958c0-0.8427,0.1873-1.5918,1.0708-2.0703l17.1784-8.7194"/><path fill="none" stroke="#000" stroke-linecap="round" stroke-linejoin="round" stroke-miterlimit="10" stroke-width="2" d="M19.5423,39.4964l0.659-3.9539c0.0669-0.5425,0.6064-1.3509,0.9989-1.5091l2.1077-0.8445"/><polyline fill="none" stroke="#000" stroke-linecap="round" stroke-linejoin="round" stroke-miterlimit="10" stroke-width="2" points="26.063 35.788 45.9 6.237 50.201 9.084 33.73 34.189"/><polyline fill="none" stroke="#000" stroke-linecap="round" stroke-linejoin="round" stroke-miterlimit="10" stroke-width="2" points="15.552 56.775 13.516 59.539 8.74 64.873 11.494 58 13.534 54.961"/><path fill="none" stroke="#000" stroke-linecap="round" stroke-linejoin="round" stroke-miterlimit="10" stroke-width="2" d="M43.7044,26.2517c0,0,12.6258,6.0141,16.3497,8.7817c6.4166,4.769,5.6531,14.8187,0,20.4719 c-4.527,0.4947-8.1479,2.0335-18.2172,2.0335"/><path fill="none" stroke="#000" stroke-linecap="round" stroke-linejoin="round" stroke-width="2" d="M29.078,55.9386 c0.6067,3.2292-4.422,4.7876-5.0939,0.133"/><path fill="none" stroke="#000" stroke-linecap="round" stroke-linejoin="round" stroke-width="2" d="M34.0112,55.7907 c0.6388,3.2142-4.2872,4.1327-4.9332,0.1478"/><path fill="none" stroke="#000" stroke-linecap="round" stroke-linejoin="round" stroke-width="2" d="M39.0495,55.3947 c0.6599,3.2167-4.3629,3.6515-5.0383,0.396"/><line x1="39.05" x2="38.456" y1="55.395" y2="52.613" fill="none" stroke="#000" stroke-linecap="round" stroke-linejoin="round" stroke-miterlimit="10" stroke-width="2"/><line x1="34.011" x2="33.009" y1="55.791" y2="51.234" fill="none" stroke="#000" stroke-linecap="round" stroke-linejoin="round" stroke-miterlimit="10" stroke-width="2"/><line x1="29.078" x2="28.455" y1="55.939" y2="52.862" fill="none" stroke="#000" stroke-linecap="round" stroke-linejoin="round" stroke-miterlimit="10" stroke-width="2"/><line x1="23.984" x2="23.891" y1="56.072" y2="55.395" fill="none" stroke="#000" stroke-linecap="round" stroke-linejoin="round" stroke-miterlimit="10" stroke-width="2"/><path fill="none" stroke="#000" stroke-linecap="round" stroke-linejoin="round" stroke-miterlimit="10" stroke-width="2" d="M56.7973,52.2387c-13.0477,2.7879-14.9603-3.4116-21.2146-4.3521c-5.087-1.0545-10.7889,2.251-12.7396,3.8613 c-4.4436,4.2833-10.2629-1.5712-4.7642-5.6889c0,0,5.0087-4.6922,7.2546-5.7291c2.183-1.0079,9.5516-2.1251,9.5516-2.1251"/></g></svg>